# AST/ASF file generated using VICON BodyLanguage
# -----------------------------------------------
:version 1.10
:name VICON
:units
  mass 1.0
  length 0.45
  angle deg
:documentation
   .ast/.asf automatically generated from VICON data using
   VICON BodyBuilder and BodyLanguage model FoxedUp or BRILLIANT.MOD
:root
   order TX TY TZ RX RY RZ
   axis XYZ
   position 0 0 0  
   orientation 0 -0 0 
:bonedata
  begin
     id 1 
     name lhipjoint
     direction 0.500677 -0.737119 0.453848 
     length 2.34727 
     axis 0 -0 0  XYZ
  end
  begin
     id 2 
     name lfemur
     direction 0.34202 -0.939693 0  
     length 7.53653  
     axis 0 -0 20  XYZ
    dof rx ry rz
    limits (-160.0 20.0)
           (-70.0 70.0)
           (-60.0 70.0)
  end
  begin
     id 3 
     name ltibia
     direction 0.34202 -0.939693 0   
     length 6.85572   
     axis 0 -0 20   XYZ
    dof rx
    limits (-10.0 170.0)
  end
  begin
     id 4 
     name lfoot
     direction 0.155313 -0.426718 0.890949   
     length 2.18324   
     axis -90 -1.13533e-015 20   XYZ
    dof rx rz
    limits (-45.0 90.0)
           (-70.0 20.0)
  end
  begin
     id 5 
     name ltoes
     direction 1.53474e-011 -4.21647e-011 1   
     length 1.06748   
     axis -90 -1.13533e-015 20   XYZ
    dof rx
    limits (-90.0 20.0)
  end
  begin
     id 6 
     name rhipjoint
     direction -0.632471 -0.659587 0.406111   
     length 2.62319  
     axis 0 -0 0  XYZ 
  end
  begin
     id 7 
     name rfemur
     direction -0.34202 -0.939693 0   
     length 7.21735   
     axis 0 -0 -20   XYZ
    dof rx ry rz
    limits (-160.0 20.0)
           (-70.0 70.0)
           (-70.0 60.0)
  end
  begin
     id 8 
     name rtibia
     direction -0.34202 -0.939693 0   
     length 7.02558   
     axis 0 -0 -20   XYZ
    dof rx
    limits (-10.0 170.0)
 end
 begin
     id 9 
     name rfoot
     direction -0.16057 -0.441164 0.882945   
     length 2.10014  
     axis -90 1.13533e-015 -20   XYZ
    dof rx rz
    limits (-45.0 90.0)
           (-20.0 70.0)
  end
  begin
     id 10 
     name rtoes
     direction -1.53553e-011 -4.2192e-011 1   
     length 1.02554   
     axis -90 1.13533e-015 -20   XYZ
    dof rx
    limits (-90.0 20.0)
  end
  begin
     id 11 
     name lowerback
     direction 0.0401429 0.998861 -0.0258085   
     length 1.80848   
     axis 0 -0 0   XYZ
    dof rx ry rz
    limits (-20.0 45.0)
           (-30.0 30.0)
           (-30.0 30.0)
  end
  begin
     id 12 
     name upperback
     direction -0.0130978 0.999914 -0.000352645   
     length 1.8116   
     axis 0 -0 0   XYZ
    dof rx ry rz
    limits (-20.0 45.0)
           (-30.0 30.0)
           (-30.0 30.0)
  end
  begin
     id 13 
     name thorax
     direction -0.0300198 0.999453 0.0138573   
     length 1.81778   
     axis 0 -0 0   XYZ
    dof rx ry rz
    limits (-20.0 45.0)
           (-30.0 30.0)
           (-30.0 30.0)
  end
  begin
     id 14 
     name lowerneck
     direction -0.0401726 0.999191 -0.00173647   
     length 2.10594   
     axis 0 -0 0   XYZ
    dof rx ry rz
    limits (-20.0 45.0)
           (-30.0 30.0)
           (-30.0 30.0)
  end
  begin
     id 15 
     name upperneck
     direction 0.0119835 0.998501 0.0534085   
     length 2.07325   
     axis 0 -0 0   XYZ
    dof rx ry rz
    limits (-20.0 45.0)
           (-30.0 30.0)
           (-30.0 30.0)
  end
  begin
     id 16
     name head
     direction 0.00628309 0.999826 0.0175921  
     length 2.15096  
     axis 0 -0 0   XYZ
    dof rx ry rz
    limits (-20.0 45.0)
           (-30.0 30.0)
           (-30.0 30.0)
  end
  begin
     id 17 
     name lclavicle
     direction 0.895501 0.429681 -0.115981  
     length 4.18092  
     axis 0 -0 0   XYZ
    dof ry rz
    limits (-20.0 10.0)
           (0.0 20.0)
  end
  begin
     id 18 
     name lhumerus
     direction 1 -4.48961e-011 -3.38433e-028   
     length 5.77237   
     axis 180 -30 -90   XYZ
    dof rx ry rz
    limits (-60.0 90.0)
           (-90.0 90.0)
           (-90.0 90.0)
  end
  begin
     id 19
     name lradius
     direction 1 -4.4901e-011 1.11983e-026   
     length 2.91878   
     axis 180 -30 -90   XYZ
    dof rx
    limits (-10.0 170.0)
  end
  begin
     id 20
     name lwrist
     direction 1 -4.48934e-011 1.88176e-026   
     length 1.45939   
     axis -1.23311e-014 90 90   XYZ
    dof ry
    limits (-180.0 0.0)
 end
  begin
     id 21 
     name lhand
     direction 1 -4.4895e-011 3.76352e-026   
     length 1.06566   
     axis -2.40147e-014 90 90   XYZ
    dof rx rz
    limits (-90.0 90.0)
           (-45.0 45.0)
  end
  begin
     id 22 
     name lfingers
     direction 1 -4.49005e-011 7.52705e-026   
     length 0.859162   
     axis -4.80295e-014 90 90   XYZ
    dof rx
    limits (0.0 90.0)
  end
  begin
     id 23
     name lthumb
     direction 0.707107 -6.34885e-011 0.707107   
     length 1.23359   
     axis -90 45 -9.86935e-015   XYZ
    dof rx rz
    limits (-45.0 45.0)
           (-45.0 45.0)
  end
  begin
     id 24 
     name rclavicle
     direction -0.91006 0.40451 -0.0903492   
     length 4.23293  
     axis 0 -0 0   XYZ 
    dof ry rz
    limits (-10.0 20.0)
           (-20.0 0.0)
  end
  begin
     id 25 
     name rhumerus
     direction -1 -4.4897e-011 1.7415e-027  
     length 5.49854   
     axis 180 30 90   XYZ
    dof rx ry rz
    limits (-90.0 60.0)
           (-90.0 90.0)
           (-90.0 90.0)
  end
  begin
     id 26 
     name rradius
     direction -1 -4.48963e-011 1.21259e-026   
     length 3.1186   
     axis 180 30 90   XYZ
    dof rx
    limits (-10.0 170.0)
  end
  begin
     id 27 
     name rwrist
     direction -1 -4.48967e-011 1.88176e-026   
     length 1.5593   
     axis -1.23311e-014 -90 -90   XYZ
    dof ry
    limits (-180.0 0.0)
  end
  begin
     id 28
     name rhand
     direction -1 -4.4895e-011 3.76352e-026   
     length 0.71207   
     axis -2.40147e-014 -90 -90   XYZ
    dof rx rz
    limits (-90.0 90.0)
           (-45.0 45.0)
  end
  begin
     id 29
     name rfingers
     direction -1 -4.49005e-011 7.52705e-026   
     length 0.574089   
     axis -4.80295e-014 -90 -90   XYZ
    dof rx
    limits (0.0 90.0)
  end
  begin
     id 30
     name rthumb
     direction -0.707107 -6.34982e-011 0.707107   
     length 0.824281   
     axis -90 -45 9.86935e-015   XYZ
    dof rx rz
    limits (-45.0 45.0)
           (-45.0 45.0)
  end
:hierarchy
  begin
    root lhipjoint rhipjoint lowerback
    lhipjoint lfemur
    lfemur ltibia
    ltibia lfoot
    lfoot ltoes
    rhipjoint rfemur
    rfemur rtibia
    rtibia rfoot
    rfoot rtoes
    lowerback upperback
    upperback thorax
    thorax lowerneck lclavicle rclavicle
    lowerneck upperneck
    upperneck head
    lclavicle lhumerus
    lhumerus lradius
    lradius lwrist
    lwrist lhand lthumb
    lhand lfingers
    rclavicle rhumerus
    rhumerus rradius
    rradius rwrist
    rwrist rhand rthumb
    rhand rfingers
  end

#!OML:ASF C:\ViconDB\ViconDB\414\Spring2016\042216\male.ASF
:FULLY-SPECIFIED
:DEGREES
644
root 31.1747 17.2299 -1.76464 -540.67 24.1718 -181.748
lowerback -3.40129 -2.29608 0.729174
upperback -0.30903 -3.05585 -1.08363
thorax 1.48991 -1.51302 -1.65821
lowerneck -2.78342 1.48465 -7.26779
upperneck 3.9353 2.07681 6.00319
head 1.60687 1.06134 3.28565
rclavicle -3.33329e-014 -1.57537e-014
rhumerus -26.1422 -11.321 -84.5467
rradius 32.0601
rwrist 22.2222
rhand 4.492 -24.3873
rfingers 7.12502
rthumb 29.8853 -51.9953
lclavicle -3.33329e-014 -1.57537e-014
lhumerus -36.7169 14.168 79.7413
lradius 38.364
lwrist 3.01426
lhand -18.255 18.1447
lfingers 7.12502
lthumb 8.02427 47.9724
rfemur -6.47835 9.44462 21.0603
rtibia 31.2347
rfoot -23.294 -5.68822
rtoes -12.703
lfemur -3.49492 -3.08135 -24.5658
ltibia 28.997
lfoot -30.7181 15.0352
ltoes -13.4888
645
root 31.1724 17.229 -1.7549 -540.715 24.1303 -181.66
lowerback -3.30844 -2.28453 0.798113
upperback -0.277743 -3.04393 -1.07619
thorax 1.46726 -1.50718 -1.68515
lowerneck -2.63223 1.43846 -7.37408
upperneck 3.57956 2.01169 6.14069
head 1.46727 1.0292 3.34379
rclavicle 1.95912e-015 -1.49089e-016
rhumerus -26.3969 -11.2382 -85.007
rradius 32.5017
rwrist 21.9158
rhand 4.37693 -24.3953
rfingers 7.12502
rthumb 29.7755 -52.023
lclavicle 1.95912e-015 -1.49089e-016
lhumerus -36.7988 14.0069 80.2218
lradius 38.8739
lwrist 2.8785
lhand -17.7757 18.1672
lfingers 7.12502
lthumb 8.48684 47.9767
rfemur -6.36133 9.46204 21.1676
rtibia 31.1268
rfoot -23.2495 -5.70786
rtoes -12.6484
lfemur -3.46828 -3.26927 -24.4997
ltibia 29.0669
lfoot -30.7744 15.1045
ltoes -13.2001
646
root 31.1691 17.2282 -1.7437 -540.693 24.0831 -181.539
lowerback -3.22636 -2.2821 0.887484
upperback -0.270337 -3.04475 -1.06026
thorax 1.4251 -1.5078 -1.71516
lowerneck -2.5018 1.38067 -7.34941
upperneck 3.28478 1.93125 6.12915
head 1.35412 0.988307 3.32683
rclavicle -1.74635e-014 2.65874e-015
rhumerus -26.6771 -10.8038 -85.5521
rradius 32.8923
rwrist 21.5232
rhand 4.5789 -23.9556
rfingers 7.12502
rthumb 29.9682 -51.5486
lclavicle -1.74635e-014 2.65874e-015
lhumerus -36.842 13.4973 80.849
lradius 39.062
lwrist 2.77338
lhand -17.8209 17.841
lfingers 7.12502
lthumb 8.44321 47.6522
rfemur -6.31855 9.39981 21.2843
rtibia 30.998
rfoot -23.1399 -5.67619
rtoes -12.6195
lfemur -3.51897 -3.38748 -24.3916
ltibia 29.1561
lfoot -30.8015 15.2081
ltoes -13.2227
647
root 31.1622 17.2264 -1.73552 -540.704 24.0735 -181.355
lowerback -3.10978 -2.24659 1.12101
upperback -0.249145 -3.00648 -1.05622
thorax 1.37116 -1.48834 -1.83509
lowerneck -2.40396 1.30121 -7.35447
upperneck 3.1258 1.82137 6.16539
head 1.29303 0.933338 3.33491
rclavicle 3.05243e-014 9.44227e-015
rhumerus -27.0118 -10.1452 -86.2314
rradius 33.3243
rwrist 20.6865
rhand 4.44871 -24.1489
rfingers 7.12502
rthumb 29.844 -51.7643
lclavicle 3.05243e-014 9.44227e-015
lhumerus -36.783 12.3356 81.7556
lradius 39.1305
lwrist 3.61207
lhand -17.8582 17.6403
lfingers 7.12502
lthumb 8.40715 47.453
rfemur -6.22884 9.15125 21.4312
rtibia 30.9094
rfoot -23.0953 -5.4464
rtoes -12.6474
lfemur -3.46717 -3.57514 -24.254
ltibia 29.2061
lfoot -30.8224 15.3773
ltoes -12.8345
648
root 31.1552 17.2254 -1.72619 -540.7 24.0825 -181.223
lowerback -2.95831 -2.22194 1.26837
upperback -0.291188 -2.97855 -1.02605
thorax 1.23846 -1.47556 -1.87737
lowerneck -2.34971 1.24523 -7.29932
upperneck 3.13501 1.74381 6.05377
head 1.29272 0.892504 3.28395
rclavicle 4.60171e-014 9.69075e-015
rhumerus -27.3769 -9.60182 -86.8417
rradius 33.519
rwrist 20.4037
rhand 4.25151 -23.9096
rfingers 7.12502
rthumb 29.6558 -51.5586
lclavicle 4.60171e-014 9.69075e-015
lhumerus -36.9452 11.8099 82.4636
lradius 39.4068
lwrist 3.52766
lhand -17.5995 17.6362
lfingers 7.12502
lthumb 8.65688 47.4387
rfemur -6.18328 8.88852 21.5083
rtibia 30.8009
rfoot -23.02 -5.16172
rtoes -12.5014
lfemur -3.47867 -3.63059 -24.1519
ltibia 29.2878
lfoot -30.8704 15.4587
ltoes -13.1121
649
root 31.1504 17.2294 -1.70942 -540.702 23.9969 -181.38
lowerback -2.79573 -2.24467 1.03685
upperback -0.419194 -2.99873 -1.02216
thorax 1.0275 -1.48865 -1.73397
lowerneck -2.33537 1.20103 -7.29626
upperneck 3.26509 1.68339 5.97028
head 1.33708 0.860238 3.25545
rclavicle 6.54017e-014 1.19768e-014
rhumerus -27.7534 -8.76349 -87.5033
rradius 33.6214
rwrist 20.2598
rhand 4.17873 -23.6393
rfingers 7.12502
rthumb 29.5863 -51.3007
lclavicle 6.54017e-014 1.19768e-014
lhumerus -37.123 11.056 83.3054
lradius 39.3786
lwrist 3.79091
lhand -17.6537 17.2676
lfingers 7.12502
lthumb 8.60453 47.0723
rfemur -6.28248 8.65367 21.2952
rtibia 30.7066
rfoot -22.9279 -4.98564
rtoes -12.481
lfemur -3.64518 -3.75929 -24.3238
ltibia 29.367
lfoot -30.8538 15.5463
ltoes -12.8812
650
root 31.1408 17.2286 -1.69806 -540.61 24.0001 -181.005
lowerback -2.50623 -2.23982 1.40641
upperback -0.56235 -3.00227 -0.909269
thorax 0.705711 -1.49399 -1.80776
lowerneck -2.29066 1.17526 -7.34946
upperneck 3.53583 1.64415 5.94946
head 1.41974 0.838449 3.26138
rclavicle 5.93823e-014 2.06239e-015
rhumerus -28.1695 -7.87519 -88.2027
rradius 33.5614
rwrist 19.8803
rhand 4.13037 -23.6
rfingers 7.12502
rthumb 29.5402 -51.2696
lclavicle 5.93823e-014 2.06239e-015
lhumerus -37.3222 10.418 84.1047
lradius 39.1079
lwrist 3.70138
lhand -17.5565 16.9925
lfingers 7.12502
lthumb 8.69832 46.7933
rfemur -6.23665 8.51426 21.6507
rtibia 30.6227
rfoot -22.8579 -4.83885
rtoes -12.4457
lfemur -3.65605 -3.83825 -23.9754
ltibia 29.4403
lfoot -30.8437 15.6893
ltoes -12.8899
651
root 31.1332 17.2271 -1.68816 -540.6 23.9598 -180.864
lowerback -2.29831 -2.2585 1.54009
upperback -0.67378 -3.02754 -0.880548
thorax 0.468762 -1.50957 -1.84115
lowerneck -2.34994 1.14845 -7.24109
upperneck 3.90721 1.60685 5.82122
head 1.5546 0.818909 3.20257
rclavicle -8.05078e-015 3.77691e-015
rhumerus -28.5493 -6.98649 -88.9994
rradius 33.4609
rwrist 19.5043
rhand 4.38293 -23.4468
rfingers 7.12502
rthumb 29.7812 -51.0735
lclavicle -8.05078e-015 3.77691e-015
lhumerus -37.4234 10.2446 84.6835
lradius 38.7019
lwrist 3.02848
lhand -17.1672 16.8096
lfingers 7.12502
lthumb 9.07403 46.5944
rfemur -6.2027 8.2875 21.7669
rtibia 30.5623
rfoot -22.7969 -4.70126
rtoes -12.4708
lfemur -3.66437 -3.95967 -23.8657
ltibia 29.4959
lfoot -30.8832 15.7868
ltoes -13.1566
652
root 31.13 17.2277 -1.67936 -540.649 23.9242 -180.921
lowerback -2.21974 -2.27789 1.46955
upperback -0.764031 -3.04907 -0.900287
thorax 0.334032 -1.5217 -1.81641
lowerneck -2.33108 1.12935 -7.20571
upperneck 4.18698 1.57728 5.77907
head 1.64478 0.803489 3.18508
rclavicle 1.3533e-013 1.67228e-014
rhumerus -28.8251 -6.20541 -89.828
rradius 33.108
rwrist 19.6899
rhand 4.57226 -23.3329
rfingers 7.12502
rthumb 29.9619 -50.927
lclavicle 1.3533e-013 1.67228e-014
lhumerus -37.6508 10.0005 85.3147
lradius 38.3559
lwrist 2.59397
lhand -16.891 16.5638
lfingers 7.12502
lthumb 9.34047 46.3368
rfemur -6.17019 8.18302 21.6966
rtibia 30.4859
rfoot -22.7425 -4.64979
rtoes -12.4422
lfemur -3.68972 -4.13522 -23.9683
ltibia 29.5675
lfoot -30.8929 15.995
ltoes -12.8184
653
root 31.1282 17.2292 -1.66745 -540.639 23.9044 -180.896
lowerback -2.17223 -2.2803 1.46419
upperback -0.838273 -3.05036 -0.900051
thorax 0.231619 -1.5234 -1.80901
lowerneck -2.44781 1.12939 -7.18067
upperneck 4.59872 1.58027 5.75272
head 1.80063 0.805833 3.18024
rclavicle 1.50906e-014 4.05024e-015
rhumerus -29.0478 -5.5743 -90.6268
rradius 32.6562
rwrist 20.0298
rhand 5.02204 -23.1221
rfingers 7.12502
rthumb 30.391 -50.6378
lclavicle 1.50906e-014 4.05024e-015
lhumerus -37.8353 9.20324 86.2034
lradius 38.1342
lwrist 2.70026
lhand -16.9514 16.6248
lfingers 7.12502
lthumb 9.28223 46.4005
rfemur -6.20199 8.30891 21.758
rtibia 30.4727
rfoot -22.7127 -4.82331
rtoes -12.5096
lfemur -3.739 -4.22508 -23.9467
ltibia 29.5759
lfoot -30.8824 16.0708
ltoes -12.7129
654
root 31.1298 17.2334 -1.65676 -540.574 23.8763 -180.876
lowerback -2.24006 -2.2833 1.41868
upperback -0.873959 -3.0533 -0.878467
thorax 0.236443 -1.52455 -1.7637
lowerneck -2.60752 1.09466 -7.22254
upperneck 4.92532 1.54245 5.74245
head 1.93993 0.787245 3.19266
rclavicle -5.57622e-014 1.41634e-015
rhumerus -29.2004 -4.8167 -91.4414
rradius 32.2133
rwrist 20.4029
rhand 5.3549 -23.0578
rfingers 7.12502
rthumb 30.7084 -50.5144
lclavicle -5.57622e-014 1.41634e-015
lhumerus -37.8526 8.80485 86.9574
lradius 37.6811
lwrist 2.12844
lhand -16.2445 17.0164
lfingers 7.12502
lthumb 9.96428 46.7606
rfemur -6.28872 8.58881 21.839
rtibia 30.4686
rfoot -22.6592 -5.1572
rtoes -12.4529
lfemur -3.84635 -4.31771 -23.9111
ltibia 29.5689
lfoot -30.8663 16.1446
ltoes -12.9448
655
root 31.1334 17.2356 -1.6487 -540.551 23.8699 -180.976
lowerback -2.39676 -2.30866 1.23121
upperback -0.868175 -3.08372 -0.865889
thorax 0.339426 -1.53799 -1.65424
lowerneck -2.85642 1.06979 -7.33832
upperneck 5.25778 1.52449 5.78051
head 2.0968 0.778824 3.23834
rclavicle 1.11066e-013 1.3418e-015
rhumerus -29.2669 -3.64775 -92.3937
rradius 31.6345
rwrist 20.5129
rhand 5.52081 -23.1023
rfingers 7.12502
rthumb 30.8666 -50.5291
lclavicle 1.11066e-013 1.3418e-015
lhumerus -37.8846 8.57063 87.6622
lradius 37.3695
lwrist 1.29295
lhand -15.6161 17.4146
lfingers 7.12502
lthumb 10.5705 47.1288
rfemur -6.37341 8.8061 21.7837
rtibia 30.4653
rfoot -22.6486 -5.37048
rtoes -12.5174
lfemur -3.93562 -4.44714 -24.0065
ltibia 29.5636
lfoot -30.8797 16.2711
ltoes -12.9386
656
root 31.1376 17.2358 -1.64284 -540.499 23.8558 -180.918
lowerback -2.5971 -2.34229 1.21283
upperback -0.827662 -3.12995 -0.848188
thorax 0.493189 -1.55942 -1.6374
lowerneck -3.07496 1.04702 -7.34849
upperneck 5.54647 1.50615 5.76365
head 2.23443 0.770655 3.2437
rclavicle 3.84369e-014 -4.24902e-015
rhumerus -29.4613 -2.62981 -93.3754
rradius 31.3488
rwrist 21.314
rhand 6.20502 -23.2588
rfingers 7.12502
rthumb 31.5187 -50.5601
lclavicle 3.84369e-014 -4.24902e-015
lhumerus -37.8482 8.54428 88.1688
lradius 36.8222
lwrist 0.0134521
lhand -14.7486 17.5386
lfingers 7.12502
lthumb 11.4072 47.2083
rfemur -6.4021 9.14611 21.918
rtibia 30.4677
rfoot -22.6462 -5.736
rtoes -12.4017
lfemur -3.98669 -4.4934 -23.9195
ltibia 29.5555
lfoot -30.9209 16.2723
ltoes -12.828
657
root 31.1433 17.2331 -1.63802 -540.498 23.847 -180.895
lowerback -2.72738 -2.37557 1.13468
upperback -0.797909 -3.17382 -0.808822
thorax 0.601397 -1.58019 -1.56174
lowerneck -3.30357 1.03391 -7.45961
upperneck 5.84511 1.50397 5.80527
head 2.3769 0.76989 3.28985
rclavicle 6.28082e-014 1.40143e-014
rhumerus -29.673 -1.2159 -94.4755
rradius 31.0601
rwrist 20.7427
rhand 6.2307 -23.8962
rfingers 7.12502
rthumb 31.5431 -51.1928
lclavicle 6.28082e-014 1.40143e-014
lhumerus -37.9192 8.28631 88.8541
lradius 36.2644
lwrist -0.846477
lhand -14.1507 17.2911
lfingers 7.12502
lthumb 11.9838 46.928
rfemur -6.3829 9.45851 22.018
rtibia 30.4879
rfoot -22.7028 -6.04024
rtoes -12.3221
lfemur -3.97442 -4.43111 -23.8576
ltibia 29.5274
lfoot -31.0233 16.2488
ltoes -12.8115
658
root 31.1533 17.2319 -1.63255 -540.547 23.8026 -181.045
lowerback -2.9228 -2.40095 0.873125
upperback -0.747775 -3.20053 -0.83365
thorax 0.774056 -1.59169 -1.45293
lowerneck -3.54713 1.07675 -7.47352
upperneck 6.10833 1.57387 5.83076
head 2.50541 0.806959 3.31349
rclavicle 8.08805e-014 7.45443e-015
rhumerus -29.886 -0.319198 -95.4483
rradius 30.7338
rwrist 21.171
rhand 6.66391 -24.1042
rfingers 7.12502
rthumb 31.9557 -51.319
lclavicle 8.08805e-014 7.45443e-015
lhumerus -37.9795 8.31272 89.4052
lradius 35.8052
lwrist -2.26798
lhand -13.5877 17.3119
lfingers 7.12502
lthumb 12.5266 46.9164
rfemur -6.39328 9.5401 21.9071
rtibia 30.5108
rfoot -22.7657 -6.19588
rtoes -12.359
lfemur -3.99948 -4.18292 -23.9299
ltibia 29.502
lfoot -31.0838 15.9363
ltoes -12.6701
